<svg width="25" height="25" viewBox="0 0 25 25" fill="none" xmlns="http://www.w3.org/2000/svg">
<path d="M7.29183 10.4167C7.08581 10.4167 6.88441 10.4778 6.71311 10.5922C6.54181 10.7067 6.4083 10.8694 6.32946 11.0597C6.25061 11.2501 6.22999 11.4595 6.27018 11.6616C6.31037 11.8636 6.40958 12.0492 6.55526 12.1949C6.70094 12.3406 6.88655 12.4398 7.08861 12.48C7.29067 12.5202 7.50012 12.4996 7.69046 12.4207C7.8808 12.3419 8.04348 12.2084 8.15794 12.0371C8.2724 11.8658 8.3335 11.6644 8.3335 11.4583C8.3335 11.1821 8.22375 10.9171 8.0284 10.7218C7.83305 10.5264 7.5681 10.4167 7.29183 10.4167ZM19.7918 6.25001H18.7502V3.12501C18.7502 2.84874 18.6404 2.58379 18.4451 2.38844C18.2497 2.19309 17.9848 2.08334 17.7085 2.08334H7.29183C7.01556 2.08334 6.75061 2.19309 6.55526 2.38844C6.35991 2.58379 6.25016 2.84874 6.25016 3.12501V6.25001H5.2085C4.37969 6.25001 3.58484 6.57925 2.99879 7.1653C2.41274 7.75135 2.0835 8.54621 2.0835 9.37501V15.625C2.0835 16.4538 2.41274 17.2487 2.99879 17.8347C3.58484 18.4208 4.37969 18.75 5.2085 18.75H6.25016V21.875C6.25016 22.1513 6.35991 22.4162 6.55526 22.6116C6.75061 22.8069 7.01556 22.9167 7.29183 22.9167H17.7085C17.9848 22.9167 18.2497 22.8069 18.4451 22.6116C18.6404 22.4162 18.7502 22.1513 18.7502 21.875V18.75H19.7918C20.6206 18.75 21.4155 18.4208 22.0015 17.8347C22.5876 17.2487 22.9168 16.4538 22.9168 15.625V9.37501C22.9168 8.54621 22.5876 7.75135 22.0015 7.1653C21.4155 6.57925 20.6206 6.25001 19.7918 6.25001ZM8.3335 4.16668H16.6668V6.25001H8.3335V4.16668ZM16.6668 20.8333H8.3335V16.6667H16.6668V20.8333ZM20.8335 15.625C20.8335 15.9013 20.7238 16.1662 20.5284 16.3616C20.3331 16.5569 20.0681 16.6667 19.7918 16.6667H18.7502V15.625C18.7502 15.3487 18.6404 15.0838 18.4451 14.8884C18.2497 14.6931 17.9848 14.5833 17.7085 14.5833H7.29183C7.01556 14.5833 6.75061 14.6931 6.55526 14.8884C6.35991 15.0838 6.25016 15.3487 6.25016 15.625V16.6667H5.2085C4.93223 16.6667 4.66728 16.5569 4.47193 16.3616C4.27658 16.1662 4.16683 15.9013 4.16683 15.625V9.37501C4.16683 9.09874 4.27658 8.83379 4.47193 8.63844C4.66728 8.44309 4.93223 8.33334 5.2085 8.33334H19.7918C20.0681 8.33334 20.3331 8.44309 20.5284 8.63844C20.7238 8.83379 20.8335 9.09874 20.8335 9.37501V15.625Z" fill="#FFFFF9"/>
</svg>
